# xmcd CD database file
#
# Track frame offsets:
#	182
#	13465
#	30650
#	47085
#	60112
#	74987
#	89200
#	105185
#	122632
#	138185
#
# Disc length: 2023 seconds
#
# Revision: 6
# Processed by: cddbd v1.5.2PL0 Copyright (c) Steve Scherf et al.
# Submitted via: CDex 1.79
#
DISCID=8a07e50a
DTITLE=Holly Dunn - Life And Love And All The Stages
DYEAR=1995
DGENRE=Country
TTITLE0=I Am Who I Am
TTITLE1=It`s Not About Blame
TTITLE2=The Wonder Of Love
TTITLE3=Rock-A-Billy
TTITLE4=Lovin' Every Minute
TTITLE5=Cowboys Are My Weakness
TTITLE6=What Kind Of Love
TTITLE7=Love Across The Line
TTITLE8=I'd Know That Heartache Anywhere
TTITLE9=1001 Ways
EXTD=YEAR: 1995
EXTT0=
EXTT1=
EXTT2=
EXTT3=
EXTT4=
EXTT5=
EXTT6=
EXTT7=
EXTT8=
EXTT9=
PLAYORDER=
